# MagicaVoxel @ Ephtracy

# group
o 

# material
mtllib Bullet_2.mtl
usemtl palette

# normals
vn -1 0 0
vn 1 0 0
vn 0 0 1
vn 0 0 -1
vn 0 -1 0
vn 0 1 0

# texcoords
vt 0.376953 0.5
vt 0.380859 0.5
vt 0.400391 0.5
vt 0.404297 0.5
vt 0.525391 0.5
vt 0.658203 0.5
vt 0.822266 0.5
vt 0.826172 0.5
vt 0.833984 0.5
vt 0.837891 0.5
vt 0.986328 0.5

# verts
v 0 0.1 -0.2
v 0 0.1 -0.3
v 0 0.1 -0.4
v 0 0.1 -0.5
v 0 0.1 -0.6
v 0 0.2 -0.1
v 0 0.2 -0.2
v 0 0.2 -0.3
v 0 0.2 -0.4
v 0 0.2 -0.5
v 0 0.2 -0.6
v 0 0.3 -0.1
v 0 0.3 -0.2
v 0 0.3 -0.3
v 0 0.3 -0.4
v 0 0.3 -0.5
v 0 0.4 -0.2
v 0 0.4 -0.3
v 0 0.4 -0.4
v 0 0.4 -0.5
v 0.1 0.1 -0.1
v 0.1 0.1 -0.2
v 0.1 0.2 0
v 0.1 0.2 -0.1
v 0.1 0.2 -0.2
v 0.1 0.2 -0.4
v 0.1 0.2 -0.5
v 0.1 0.2 -0.6
v 0.1 0.3 0
v 0.1 0.3 -0.1
v 0.1 0.3 -0.2
v 0.1 0.3 -0.4
v 0.1 0.3 -0.5
v 0.1 0.3 -0.6
v 0.1 0.4 -0.1
v 0.1 0.4 -0.2
v 0.2 0.2 -0.2
v 0.2 0.2 -0.3
v 0.2 0.3 -0.2
v 0.2 0.3 -0.3
v 0.2 0.3 -0.4
v 0.2 0.4 -0.3
v 0.2 0.4 -0.4
v 0.1 0.1 -0.5
v 0.1 0.1 -0.6
v 0.1 0.2 -0.2
v 0.1 0.2 -0.3
v 0.1 0.2 -0.5
v 0.1 0.2 -0.6
v 0.1 0.3 -0.2
v 0.1 0.3 -0.3
v 0.1 0.3 -0.4
v 0.1 0.4 -0.3
v 0.1 0.4 -0.4
v 0.2 0.1 -0.1
v 0.2 0.1 -0.2
v 0.2 0.1 -0.4
v 0.2 0.1 -0.5
v 0.2 0.2 0
v 0.2 0.2 -0.1
v 0.2 0.2 -0.2
v 0.2 0.2 -0.4
v 0.2 0.2 -0.5
v 0.2 0.2 -0.6
v 0.2 0.3 0
v 0.2 0.3 -0.1
v 0.2 0.3 -0.2
v 0.2 0.3 -0.4
v 0.2 0.3 -0.5
v 0.2 0.3 -0.6
v 0.2 0.4 -0.1
v 0.2 0.4 -0.2
v 0.2 0.4 -0.4
v 0.2 0.4 -0.5
v 0.3 0.1 -0.2
v 0.3 0.1 -0.3
v 0.3 0.1 -0.4
v 0.3 0.2 -0.1
v 0.3 0.2 -0.2
v 0.3 0.2 -0.3
v 0.3 0.2 -0.4
v 0.3 0.2 -0.5
v 0.3 0.3 -0.1
v 0.3 0.3 -0.2
v 0.3 0.3 -0.3
v 0.3 0.3 -0.4
v 0.3 0.3 -0.5
v 0.3 0.4 -0.2
v 0.3 0.4 -0.3
v 0.3 0.4 -0.4
v 0.1 0.2 0
v 0.1 0.3 0
v 0.2 0.2 0
v 0.2 0.3 0
v 0 0.2 -0.1
v 0 0.3 -0.1
v 0.1 0.1 -0.1
v 0.1 0.2 -0.1
v 0.1 0.3 -0.1
v 0.1 0.4 -0.1
v 0.2 0.1 -0.1
v 0.2 0.2 -0.1
v 0.2 0.3 -0.1
v 0.2 0.4 -0.1
v 0.3 0.2 -0.1
v 0.3 0.3 -0.1
v 0 0.1 -0.2
v 0 0.2 -0.2
v 0 0.3 -0.2
v 0 0.4 -0.2
v 0.1 0.1 -0.2
v 0.1 0.2 -0.2
v 0.1 0.3 -0.2
v 0.1 0.4 -0.2
v 0.2 0.1 -0.2
v 0.2 0.2 -0.2
v 0.2 0.3 -0.2
v 0.2 0.4 -0.2
v 0.3 0.1 -0.2
v 0.3 0.2 -0.2
v 0.3 0.3 -0.2
v 0.3 0.4 -0.2
v 0.1 0.2 -0.3
v 0.1 0.3 -0.3
v 0.2 0.2 -0.3
v 0.2 0.3 -0.3
v 0.1 0.3 -0.4
v 0.1 0.4 -0.4
v 0.2 0.3 -0.4
v 0.2 0.4 -0.4
v 0.1 0.2 -0.2
v 0.1 0.3 -0.2
v 0.2 0.2 -0.2
v 0.2 0.3 -0.2
v 0.1 0.3 -0.3
v 0.1 0.4 -0.3
v 0.2 0.3 -0.3
v 0.2 0.4 -0.3
v 0 0.2 -0.4
v 0 0.3 -0.4
v 0.1 0.2 -0.4
v 0.1 0.3 -0.4
v 0.2 0.1 -0.4
v 0.2 0.2 -0.4
v 0.2 0.3 -0.4
v 0.2 0.4 -0.4
v 0.3 0.1 -0.4
v 0.3 0.2 -0.4
v 0.3 0.3 -0.4
v 0.3 0.4 -0.4
v 0 0.3 -0.5
v 0 0.4 -0.5
v 0.1 0.1 -0.5
v 0.1 0.2 -0.5
v 0.1 0.3 -0.5
v 0.1 0.4 -0.5
v 0.2 0.1 -0.5
v 0.2 0.2 -0.5
v 0.2 0.3 -0.5
v 0.2 0.4 -0.5
v 0.3 0.2 -0.5
v 0.3 0.3 -0.5
v 0 0.1 -0.6
v 0 0.2 -0.6
v 0.1 0.1 -0.6
v 0.1 0.2 -0.6
v 0.1 0.3 -0.6
v 0.2 0.2 -0.6
v 0.2 0.3 -0.6
v 0.1 0.1 -0.1
v 0.2 0.1 -0.1
v 0 0.1 -0.2
v 0.1 0.1 -0.2
v 0.2 0.1 -0.2
v 0.3 0.1 -0.2
v 0 0.1 -0.3
v 0.1 0.1 -0.3
v 0.2 0.1 -0.3
v 0.3 0.1 -0.3
v 0 0.1 -0.4
v 0.1 0.1 -0.4
v 0.2 0.1 -0.4
v 0.3 0.1 -0.4
v 0 0.1 -0.5
v 0.1 0.1 -0.5
v 0.2 0.1 -0.5
v 0 0.1 -0.6
v 0.1 0.1 -0.6
v 0.1 0.2 0
v 0.2 0.2 0
v 0 0.2 -0.1
v 0.1 0.2 -0.1
v 0.2 0.2 -0.1
v 0.3 0.2 -0.1
v 0 0.2 -0.2
v 0.1 0.2 -0.2
v 0.2 0.2 -0.2
v 0.3 0.2 -0.2
v 0.2 0.2 -0.4
v 0.3 0.2 -0.4
v 0.1 0.2 -0.5
v 0.2 0.2 -0.5
v 0.3 0.2 -0.5
v 0.1 0.2 -0.6
v 0.2 0.2 -0.6
v 0.1 0.3 -0.2
v 0.2 0.3 -0.2
v 0.1 0.3 -0.3
v 0.2 0.3 -0.3
v 0 0.3 -0.4
v 0.1 0.3 -0.4
v 0 0.3 -0.5
v 0.1 0.3 -0.5
v 0.1 0.2 -0.2
v 0.2 0.2 -0.2
v 0.1 0.2 -0.3
v 0.2 0.2 -0.3
v 0 0.2 -0.4
v 0.1 0.2 -0.4
v 0 0.2 -0.5
v 0.1 0.2 -0.5
v 0 0.2 -0.6
v 0.1 0.2 -0.6
v 0.1 0.3 0
v 0.2 0.3 0
v 0 0.3 -0.1
v 0.1 0.3 -0.1
v 0.2 0.3 -0.1
v 0.3 0.3 -0.1
v 0 0.3 -0.2
v 0.1 0.3 -0.2
v 0.2 0.3 -0.2
v 0.3 0.3 -0.2
v 0.1 0.3 -0.3
v 0.2 0.3 -0.3
v 0.1 0.3 -0.4
v 0.2 0.3 -0.4
v 0.3 0.3 -0.4
v 0.1 0.3 -0.5
v 0.2 0.3 -0.5
v 0.3 0.3 -0.5
v 0.1 0.3 -0.6
v 0.2 0.3 -0.6
v 0.1 0.4 -0.1
v 0.2 0.4 -0.1
v 0 0.4 -0.2
v 0.1 0.4 -0.2
v 0.2 0.4 -0.2
v 0.3 0.4 -0.2
v 0 0.4 -0.3
v 0.1 0.4 -0.3
v 0.2 0.4 -0.3
v 0.3 0.4 -0.3
v 0 0.4 -0.4
v 0.1 0.4 -0.4
v 0.2 0.4 -0.4
v 0.3 0.4 -0.4
v 0 0.4 -0.5
v 0.1 0.4 -0.5
v 0.2 0.4 -0.5

# faces
f 7/9/1 2/9/1 1/9/1
f 8/8/1 3/8/1 2/8/1
f 8/9/1 2/9/1 7/9/1
f 9/7/1 4/7/1 3/7/1
f 9/8/1 3/8/1 8/8/1
f 10/6/1 5/6/1 4/6/1
f 10/7/1 4/7/1 9/7/1
f 11/6/1 5/6/1 10/6/1
f 12/3/1 7/3/1 6/3/1
f 13/10/1 8/10/1 7/10/1
f 13/3/1 7/3/1 12/3/1
f 14/7/1 9/7/1 8/7/1
f 14/10/1 8/10/1 13/10/1
f 15/7/1 9/7/1 14/7/1
f 17/9/1 14/9/1 13/9/1
f 18/8/1 15/8/1 14/8/1
f 18/9/1 14/9/1 17/9/1
f 19/7/1 16/7/1 15/7/1
f 19/8/1 15/8/1 18/8/1
f 20/7/1 16/7/1 19/7/1
f 24/2/1 22/2/1 21/2/1
f 25/2/1 22/2/1 24/2/1
f 29/5/1 24/5/1 23/5/1
f 30/5/1 24/5/1 29/5/1
f 32/8/1 27/8/1 26/8/1
f 33/7/1 28/7/1 27/7/1
f 33/8/1 27/8/1 32/8/1
f 34/7/1 28/7/1 33/7/1
f 35/4/1 31/4/1 30/4/1
f 36/4/1 31/4/1 35/4/1
f 39/10/1 38/10/1 37/10/1
f 40/10/1 38/10/1 39/10/1
f 42/8/1 41/8/1 40/8/1
f 43/8/1 41/8/1 42/8/1
f 44/6/2 45/6/2 48/6/2
f 48/6/2 45/6/2 49/6/2
f 46/10/2 47/10/2 50/10/2
f 50/10/2 47/10/2 51/10/2
f 51/8/2 52/8/2 53/8/2
f 53/8/2 52/8/2 54/8/2
f 55/2/2 56/2/2 60/2/2
f 60/2/2 56/2/2 61/2/2
f 57/8/2 58/8/2 62/8/2
f 62/8/2 58/8/2 63/8/2
f 59/5/2 60/5/2 65/5/2
f 65/5/2 60/5/2 66/5/2
f 63/7/2 64/7/2 69/7/2
f 69/7/2 64/7/2 70/7/2
f 66/4/2 67/4/2 71/4/2
f 71/4/2 67/4/2 72/4/2
f 68/8/2 69/8/2 73/8/2
f 73/8/2 69/8/2 74/8/2
f 75/9/2 76/9/2 79/9/2
f 76/8/2 77/8/2 80/8/2
f 79/9/2 76/9/2 80/9/2
f 80/8/2 77/8/2 81/8/2
f 78/1/2 79/1/2 83/1/2
f 79/10/2 80/10/2 84/10/2
f 83/1/2 79/1/2 84/1/2
f 80/7/2 81/7/2 85/7/2
f 84/10/2 80/10/2 85/10/2
f 81/6/2 82/6/2 86/6/2
f 85/7/2 81/7/2 86/7/2
f 86/6/2 82/6/2 87/6/2
f 84/9/2 85/9/2 88/9/2
f 85/8/2 86/8/2 89/8/2
f 88/9/2 85/9/2 89/9/2
f 89/8/2 86/8/2 90/8/2
f 93/5/3 92/5/3 91/5/3
f 94/5/3 92/5/3 93/5/3
f 98/3/3 96/3/3 95/3/3
f 99/3/3 96/3/3 98/3/3
f 101/2/3 98/2/3 97/2/3
f 102/2/3 98/2/3 101/2/3
f 103/4/3 100/4/3 99/4/3
f 104/4/3 100/4/3 103/4/3
f 105/1/3 103/1/3 102/1/3
f 106/1/3 103/1/3 105/1/3
f 111/9/3 108/9/3 107/9/3
f 112/9/3 108/9/3 111/9/3
f 113/9/3 110/9/3 109/9/3
f 114/9/3 110/9/3 113/9/3
f 119/9/3 116/9/3 115/9/3
f 120/9/3 116/9/3 119/9/3
f 121/9/3 118/9/3 117/9/3
f 122/9/3 118/9/3 121/9/3
f 125/6/3 124/6/3 123/6/3
f 126/6/3 124/6/3 125/6/3
f 129/8/3 128/8/3 127/8/3
f 130/8/3 128/8/3 129/8/3
f 131/11/4 132/11/4 133/11/4
f 133/11/4 132/11/4 134/11/4
f 135/10/4 136/10/4 137/10/4
f 137/10/4 136/10/4 138/10/4
f 139/7/4 140/7/4 141/7/4
f 141/7/4 140/7/4 142/7/4
f 143/8/4 144/8/4 147/8/4
f 147/8/4 144/8/4 148/8/4
f 145/8/4 146/8/4 149/8/4
f 149/8/4 146/8/4 150/8/4
f 151/7/4 152/7/4 155/7/4
f 155/7/4 152/7/4 156/7/4
f 153/8/4 154/8/4 157/8/4
f 157/8/4 154/8/4 158/8/4
f 155/8/4 156/8/4 159/8/4
f 159/8/4 156/8/4 160/8/4
f 158/6/4 159/6/4 161/6/4
f 161/6/4 159/6/4 162/6/4
f 163/6/4 164/6/4 165/6/4
f 165/6/4 164/6/4 166/6/4
f 166/7/4 167/7/4 168/7/4
f 168/7/4 167/7/4 169/7/4
f 173/2/5 171/2/5 170/2/5
f 174/2/5 171/2/5 173/2/5
f 176/9/5 173/9/5 172/9/5
f 177/10/5 174/10/5 173/10/5
f 177/9/5 173/9/5 176/9/5
f 178/9/5 175/9/5 174/9/5
f 178/10/5 174/10/5 177/10/5
f 179/9/5 175/9/5 178/9/5
f 180/8/5 177/8/5 176/8/5
f 181/9/5 178/9/5 177/9/5
f 181/8/5 177/8/5 180/8/5
f 182/8/5 179/8/5 178/8/5
f 182/9/5 178/9/5 181/9/5
f 183/8/5 179/8/5 182/8/5
f 184/7/5 181/7/5 180/7/5
f 185/8/5 182/8/5 181/8/5
f 185/7/5 181/7/5 184/7/5
f 186/8/5 182/8/5 185/8/5
f 187/6/5 185/6/5 184/6/5
f 188/6/5 185/6/5 187/6/5
f 192/5/5 190/5/5 189/5/5
f 193/5/5 190/5/5 192/5/5
f 195/3/5 192/3/5 191/3/5
f 196/3/5 192/3/5 195/3/5
f 197/1/5 194/1/5 193/1/5
f 198/1/5 194/1/5 197/1/5
f 202/6/5 200/6/5 199/6/5
f 203/6/5 200/6/5 202/6/5
f 204/7/5 202/7/5 201/7/5
f 205/7/5 202/7/5 204/7/5
f 208/10/5 207/10/5 206/10/5
f 209/10/5 207/10/5 208/10/5
f 212/7/5 211/7/5 210/7/5
f 213/7/5 211/7/5 212/7/5
f 214/10/6 215/10/6 216/10/6
f 216/10/6 215/10/6 217/10/6
f 218/7/6 219/7/6 220/7/6
f 220/7/6 219/7/6 221/7/6
f 220/6/6 221/6/6 222/6/6
f 222/6/6 221/6/6 223/6/6
f 224/5/6 225/5/6 227/5/6
f 227/5/6 225/5/6 228/5/6
f 226/3/6 227/3/6 230/3/6
f 230/3/6 227/3/6 231/3/6
f 228/1/6 229/1/6 232/1/6
f 232/1/6 229/1/6 233/1/6
f 234/6/6 235/6/6 236/6/6
f 236/6/6 235/6/6 237/6/6
f 237/6/6 238/6/6 240/6/6
f 240/6/6 238/6/6 241/6/6
f 239/7/6 240/7/6 242/7/6
f 242/7/6 240/7/6 243/7/6
f 244/4/6 245/4/6 247/4/6
f 247/4/6 245/4/6 248/4/6
f 246/9/6 247/9/6 250/9/6
f 247/10/6 248/10/6 251/10/6
f 250/9/6 247/9/6 251/9/6
f 248/9/6 249/9/6 252/9/6
f 251/10/6 248/10/6 252/10/6
f 252/9/6 249/9/6 253/9/6
f 250/8/6 251/8/6 254/8/6
f 254/8/6 251/8/6 255/8/6
f 252/8/6 253/8/6 256/8/6
f 256/8/6 253/8/6 257/8/6
f 254/7/6 255/7/6 258/7/6
f 255/8/6 256/8/6 259/8/6
f 258/7/6 255/7/6 259/7/6
f 259/8/6 256/8/6 260/8/6
